<svg width="26" height="26" viewBox="0 0 26 26" fill="none" xmlns="http://www.w3.org/2000/svg">
<path d="M1 4.67172C1 3.89729 1.27028 3.2584 1.81081 2.75505C2.35134 2.25168 3.05406 2 3.91892 2C4.76835 2 5.45559 2.2478 5.98069 2.74343C6.52123 3.25455 6.79151 3.92052 6.79151 4.74141C6.79151 5.48485 6.52897 6.10436 6.00386 6.6C5.46333 7.11111 4.7529 7.36667 3.87259 7.36667H3.84942C2.99999 7.36667 2.31275 7.11111 1.78764 6.6C1.26254 6.08889 1 5.44612 1 4.67172ZM1.30116 25V9.48081H6.44402V25H1.30116ZM9.29344 25H14.4363V16.3343C14.4363 15.7922 14.4981 15.3741 14.6216 15.0798C14.8378 14.5532 15.166 14.1079 15.6062 13.7439C16.0463 13.38 16.5984 13.198 17.2625 13.198C18.9923 13.198 19.8571 14.3673 19.8571 16.7061V25H25V16.102C25 13.8098 24.4595 12.0712 23.3784 10.8864C22.2973 9.70152 20.8687 9.10909 19.0927 9.10909C17.1004 9.10909 15.5483 9.96869 14.4363 11.6879V11.7343H14.4131L14.4363 11.6879V9.48081H9.29344C9.32432 9.97642 9.33977 11.5175 9.33977 14.104C9.33977 16.6906 9.32432 20.3225 9.29344 25Z" fill="#4342F7"/>
</svg>
