<svg width="196" height="51" viewBox="0 0 196 51" fill="none" xmlns="http://www.w3.org/2000/svg">
<path fill-rule="evenodd" clip-rule="evenodd" d="M16 0.5H34V12.5H16V0.5ZM18 2.5V10.5H32V2.5H18Z" fill="#080851"/>
<path fill-rule="evenodd" clip-rule="evenodd" d="M1.57361e-06 10.5H18L18 18.5H1.57361e-06V10.5ZM2 12.5V16.5H16L16 12.5H2Z" fill="#080851"/>
<path fill-rule="evenodd" clip-rule="evenodd" d="M28 16.5V34.5H16L16 16.5H28ZM26 18.5H18V32.5H26V18.5Z" fill="#080851"/>
<path fill-rule="evenodd" clip-rule="evenodd" d="M18 32.5L18 50.5H0L7.86805e-07 32.5H18ZM16 34.5H2L2 48.5H16V34.5Z" fill="#080851"/>
<path d="M55.546 20H53.566V7.148H60.424V8.804H55.546V12.998H60.118V14.654H55.546V20Z" fill="#080851"/>
<path d="M69.9293 15.14C69.9293 15.944 69.8273 16.658 69.6233 17.282C69.4193 17.906 69.1253 18.434 68.7413 18.866C68.3693 19.298 67.9133 19.628 67.3733 19.856C66.8333 20.072 66.2273 20.18 65.5553 20.18C64.9433 20.18 64.3733 20.072 63.8453 19.856C63.3173 19.628 62.8613 19.298 62.4773 18.866C62.0933 18.434 61.7933 17.906 61.5773 17.282C61.3733 16.658 61.2713 15.938 61.2713 15.122C61.2713 14.054 61.4453 13.148 61.7933 12.404C62.1413 11.66 62.6393 11.096 63.2873 10.712C63.9473 10.316 64.7273 10.118 65.6273 10.118C66.4673 10.118 67.2113 10.316 67.8593 10.712C68.5073 11.096 69.0113 11.66 69.3713 12.404C69.7433 13.148 69.9293 14.06 69.9293 15.14ZM63.2873 15.14C63.2873 15.86 63.3653 16.484 63.5213 17.012C63.6893 17.528 63.9413 17.924 64.2773 18.2C64.6253 18.476 65.0633 18.614 65.5913 18.614C66.1313 18.614 66.5693 18.476 66.9053 18.2C67.2533 17.924 67.5053 17.528 67.6613 17.012C67.8293 16.484 67.9133 15.86 67.9133 15.14C67.9133 14.396 67.8293 13.772 67.6613 13.268C67.4933 12.764 67.2413 12.38 66.9053 12.116C66.5693 11.84 66.1253 11.702 65.5733 11.702C64.7693 11.702 64.1873 12.002 63.8273 12.602C63.4673 13.202 63.2873 14.048 63.2873 15.14Z" fill="#080851"/>
<path d="M76.2324 10.118C76.3884 10.118 76.5624 10.13 76.7544 10.154C76.9464 10.166 77.1084 10.184 77.2404 10.208L77.0424 11.99C76.9104 11.954 76.7604 11.924 76.5924 11.9C76.4244 11.876 76.2564 11.864 76.0884 11.864C75.7644 11.864 75.4524 11.936 75.1524 12.08C74.8524 12.212 74.5824 12.41 74.3424 12.674C74.1024 12.926 73.9104 13.238 73.7664 13.61C73.6224 13.982 73.5504 14.408 73.5504 14.888V20H71.6064V10.298H73.1364L73.3884 12.026H73.4964C73.6764 11.678 73.8984 11.36 74.1624 11.072C74.4384 10.784 74.7504 10.556 75.0984 10.388C75.4464 10.208 75.8244 10.118 76.2324 10.118Z" fill="#080851"/>
<path d="M88.6937 10.118C89.7257 10.118 90.4997 10.4 91.0157 10.964C91.5437 11.528 91.8077 12.434 91.8077 13.682V20H89.8637V13.934C89.8637 13.19 89.7257 12.632 89.4497 12.26C89.1857 11.876 88.7717 11.684 88.2077 11.684C87.4277 11.684 86.8697 11.954 86.5337 12.494C86.2097 13.022 86.0477 13.79 86.0477 14.798V20H84.0857V13.934C84.0857 13.442 84.0257 13.028 83.9057 12.692C83.7857 12.356 83.6057 12.104 83.3657 11.936C83.1257 11.768 82.8137 11.684 82.4297 11.684C81.8897 11.684 81.4637 11.816 81.1517 12.08C80.8397 12.344 80.6177 12.734 80.4857 13.25C80.3537 13.754 80.2877 14.372 80.2877 15.104V20H78.3437V10.298H79.8737L80.1617 11.594H80.2517C80.4437 11.258 80.6717 10.982 80.9357 10.766C81.2117 10.55 81.5237 10.388 81.8717 10.28C82.2197 10.172 82.5797 10.118 82.9517 10.118C83.6357 10.118 84.2117 10.25 84.6797 10.514C85.1477 10.766 85.4957 11.156 85.7237 11.684H85.8497C86.1377 11.144 86.5397 10.748 87.0557 10.496C87.5717 10.244 88.1177 10.118 88.6937 10.118Z" fill="#080851"/>
<path d="M101.467 10.118C102.607 10.118 103.465 10.388 104.041 10.928C104.629 11.456 104.923 12.29 104.923 13.43V20H103.537L103.159 18.65H103.087C102.811 18.998 102.535 19.286 102.259 19.514C101.995 19.742 101.683 19.91 101.323 20.018C100.975 20.126 100.543 20.18 100.027 20.18C99.487 20.18 99.001 20.078 98.569 19.874C98.137 19.658 97.795 19.334 97.543 18.902C97.291 18.458 97.165 17.906 97.165 17.246C97.165 16.262 97.513 15.512 98.209 14.996C98.917 14.48 99.991 14.198 101.431 14.15L102.979 14.096V13.556C102.979 12.836 102.829 12.332 102.529 12.044C102.241 11.756 101.833 11.612 101.305 11.612C100.861 11.612 100.423 11.684 99.991 11.828C99.559 11.972 99.139 12.146 98.731 12.35L98.137 10.964C98.581 10.724 99.085 10.526 99.649 10.37C100.225 10.202 100.831 10.118 101.467 10.118ZM101.809 15.374C100.825 15.422 100.141 15.608 99.757 15.932C99.373 16.244 99.181 16.688 99.181 17.264C99.181 17.768 99.313 18.134 99.577 18.362C99.853 18.59 100.207 18.704 100.639 18.704C101.299 18.704 101.851 18.494 102.295 18.074C102.751 17.654 102.979 17.024 102.979 16.184V15.338L101.809 15.374Z" fill="#080851"/>
<path d="M111.816 10.118C112.872 10.118 113.682 10.4 114.246 10.964C114.822 11.528 115.11 12.434 115.11 13.682V20H113.166V13.952C113.166 13.196 113.016 12.632 112.716 12.26C112.428 11.876 111.978 11.684 111.366 11.684C110.466 11.684 109.848 11.978 109.512 12.566C109.176 13.154 109.008 14 109.008 15.104V20H107.064V10.298H108.594L108.864 11.594H108.972C109.176 11.258 109.422 10.982 109.71 10.766C109.998 10.55 110.322 10.388 110.682 10.28C111.042 10.172 111.42 10.118 111.816 10.118Z" fill="#080851"/>
<path d="M120.36 20.18C119.28 20.18 118.404 19.76 117.732 18.92C117.072 18.08 116.742 16.832 116.742 15.176C116.742 13.508 117.078 12.248 117.75 11.396C118.422 10.544 119.304 10.118 120.396 10.118C120.864 10.118 121.266 10.184 121.602 10.316C121.938 10.436 122.232 10.604 122.484 10.82C122.736 11.036 122.946 11.276 123.114 11.54H123.222C123.198 11.372 123.168 11.132 123.132 10.82C123.108 10.496 123.096 10.208 123.096 9.956V6.32H125.04V20H123.51L123.168 18.704H123.096C122.928 18.98 122.718 19.232 122.466 19.46C122.214 19.676 121.914 19.85 121.566 19.982C121.23 20.114 120.828 20.18 120.36 20.18ZM120.882 18.614C121.722 18.614 122.31 18.356 122.646 17.84C122.994 17.312 123.168 16.526 123.168 15.482V15.194C123.168 14.054 123.006 13.184 122.682 12.584C122.358 11.984 121.752 11.684 120.864 11.684C120.168 11.684 119.64 12.002 119.28 12.638C118.92 13.262 118.74 14.12 118.74 15.212C118.74 16.304 118.92 17.144 119.28 17.732C119.64 18.32 120.174 18.614 120.882 18.614Z" fill="#080851"/>
<path d="M133.268 20H131.288V7.148H138.146V8.804H133.268V12.998H137.84V14.654H133.268V20Z" fill="#080851"/>
<path d="M147.471 10.298V20H145.941L145.671 18.722H145.563C145.383 19.058 145.137 19.334 144.825 19.55C144.525 19.766 144.195 19.922 143.835 20.018C143.475 20.126 143.103 20.18 142.719 20.18C142.011 20.18 141.411 20.06 140.919 19.82C140.439 19.568 140.067 19.184 139.803 18.668C139.551 18.14 139.425 17.468 139.425 16.652V10.298H141.387V16.364C141.387 17.12 141.531 17.684 141.819 18.056C142.107 18.428 142.557 18.614 143.169 18.614C143.769 18.614 144.237 18.482 144.573 18.218C144.921 17.954 145.167 17.57 145.311 17.066C145.455 16.55 145.527 15.932 145.527 15.212V10.298H147.471Z" fill="#080851"/>
<path d="M154.414 10.118C155.47 10.118 156.28 10.4 156.844 10.964C157.42 11.528 157.708 12.434 157.708 13.682V20H155.764V13.952C155.764 13.196 155.614 12.632 155.314 12.26C155.026 11.876 154.576 11.684 153.964 11.684C153.064 11.684 152.446 11.978 152.11 12.566C151.774 13.154 151.606 14 151.606 15.104V20H149.662V10.298H151.192L151.462 11.594H151.57C151.774 11.258 152.02 10.982 152.308 10.766C152.596 10.55 152.92 10.388 153.28 10.28C153.64 10.172 154.018 10.118 154.414 10.118Z" fill="#080851"/>
<path d="M163.607 20.18C162.755 20.18 162.005 20.006 161.357 19.658C160.721 19.31 160.223 18.77 159.863 18.038C159.515 17.294 159.341 16.352 159.341 15.212C159.341 14.012 159.533 13.04 159.917 12.296C160.301 11.552 160.823 11.006 161.483 10.658C162.143 10.298 162.899 10.118 163.751 10.118C164.255 10.118 164.735 10.178 165.191 10.298C165.659 10.406 166.043 10.532 166.343 10.676L165.749 12.206C165.449 12.086 165.125 11.978 164.777 11.882C164.429 11.786 164.099 11.738 163.787 11.738C163.235 11.738 162.779 11.87 162.419 12.134C162.071 12.386 161.807 12.77 161.627 13.286C161.447 13.79 161.357 14.426 161.357 15.194C161.357 15.926 161.447 16.544 161.627 17.048C161.807 17.552 162.071 17.936 162.419 18.2C162.779 18.452 163.211 18.578 163.715 18.578C164.207 18.578 164.645 18.518 165.029 18.398C165.425 18.278 165.791 18.122 166.127 17.93V19.586C165.791 19.79 165.425 19.94 165.029 20.036C164.633 20.132 164.159 20.18 163.607 20.18Z" fill="#080851"/>
<path d="M171.128 18.632C171.38 18.632 171.626 18.608 171.866 18.56C172.106 18.512 172.316 18.458 172.496 18.398V19.838C172.292 19.934 172.022 20.012 171.686 20.072C171.362 20.144 171.02 20.18 170.66 20.18C170.156 20.18 169.694 20.09 169.274 19.91C168.854 19.73 168.518 19.418 168.266 18.974C168.014 18.53 167.888 17.912 167.888 17.12V11.756H166.646V10.892L167.978 10.172L168.644 8.12H169.85V10.298H172.424V11.756H169.85V17.084C169.85 17.612 169.97 18.002 170.21 18.254C170.45 18.506 170.756 18.632 171.128 18.632Z" fill="#080851"/>
<path d="M175.721 10.298V20H173.759V10.298H175.721ZM174.767 6.608C175.055 6.608 175.307 6.692 175.523 6.86C175.739 7.028 175.847 7.31 175.847 7.706C175.847 8.09 175.739 8.372 175.523 8.552C175.307 8.72 175.055 8.804 174.767 8.804C174.455 8.804 174.191 8.72 173.975 8.552C173.759 8.372 173.651 8.09 173.651 7.706C173.651 7.31 173.759 7.028 173.975 6.86C174.191 6.692 174.455 6.608 174.767 6.608Z" fill="#080851"/>
<path d="M186.067 15.14C186.067 15.944 185.965 16.658 185.761 17.282C185.557 17.906 185.263 18.434 184.879 18.866C184.507 19.298 184.051 19.628 183.511 19.856C182.971 20.072 182.365 20.18 181.693 20.18C181.081 20.18 180.511 20.072 179.983 19.856C179.455 19.628 178.999 19.298 178.615 18.866C178.231 18.434 177.931 17.906 177.715 17.282C177.511 16.658 177.409 15.938 177.409 15.122C177.409 14.054 177.583 13.148 177.931 12.404C178.279 11.66 178.777 11.096 179.425 10.712C180.085 10.316 180.865 10.118 181.765 10.118C182.605 10.118 183.349 10.316 183.997 10.712C184.645 11.096 185.149 11.66 185.509 12.404C185.881 13.148 186.067 14.06 186.067 15.14ZM179.425 15.14C179.425 15.86 179.503 16.484 179.659 17.012C179.827 17.528 180.079 17.924 180.415 18.2C180.763 18.476 181.201 18.614 181.729 18.614C182.269 18.614 182.707 18.476 183.043 18.2C183.391 17.924 183.643 17.528 183.799 17.012C183.967 16.484 184.051 15.86 184.051 15.14C184.051 14.396 183.967 13.772 183.799 13.268C183.631 12.764 183.379 12.38 183.043 12.116C182.707 11.84 182.263 11.702 181.711 11.702C180.907 11.702 180.325 12.002 179.965 12.602C179.605 13.202 179.425 14.048 179.425 15.14Z" fill="#080851"/>
<path d="M192.496 10.118C193.552 10.118 194.362 10.4 194.926 10.964C195.502 11.528 195.79 12.434 195.79 13.682V20H193.846V13.952C193.846 13.196 193.696 12.632 193.396 12.26C193.108 11.876 192.658 11.684 192.046 11.684C191.146 11.684 190.528 11.978 190.192 12.566C189.856 13.154 189.688 14 189.688 15.104V20H187.744V10.298H189.274L189.544 11.594H189.652C189.856 11.258 190.102 10.982 190.39 10.766C190.678 10.55 191.002 10.388 191.362 10.28C191.722 10.172 192.1 10.118 192.496 10.118Z" fill="#080851"/>
<path d="M61.09 43L59.884 39.292H55.294L54.088 43H52L56.518 30.094H58.678L63.178 43H61.09ZM58.174 33.982C58.138 33.838 58.078 33.64 57.994 33.388C57.922 33.124 57.85 32.854 57.778 32.578C57.706 32.29 57.64 32.05 57.58 31.858C57.532 32.122 57.472 32.386 57.4 32.65C57.328 32.914 57.262 33.16 57.202 33.388C57.142 33.616 57.088 33.814 57.04 33.982L55.852 37.6H59.362L58.174 33.982Z" fill="#080851"/>
<path d="M68.6513 33.118C68.8073 33.118 68.9813 33.13 69.1733 33.154C69.3653 33.166 69.5273 33.184 69.6593 33.208L69.4613 34.99C69.3293 34.954 69.1793 34.924 69.0113 34.9C68.8433 34.876 68.6753 34.864 68.5073 34.864C68.1833 34.864 67.8713 34.936 67.5713 35.08C67.2713 35.212 67.0013 35.41 66.7613 35.674C66.5213 35.926 66.3293 36.238 66.1853 36.61C66.0413 36.982 65.9693 37.408 65.9693 37.888V43H64.0253V33.298H65.5553L65.8073 35.026H65.9153C66.0953 34.678 66.3173 34.36 66.5813 34.072C66.8573 33.784 67.1693 33.556 67.5173 33.388C67.8653 33.208 68.2433 33.118 68.6513 33.118Z" fill="#080851"/>
<path d="M74.1906 43.18C73.3386 43.18 72.5886 43.006 71.9406 42.658C71.3046 42.31 70.8066 41.77 70.4466 41.038C70.0986 40.294 69.9246 39.352 69.9246 38.212C69.9246 37.012 70.1166 36.04 70.5006 35.296C70.8846 34.552 71.4066 34.006 72.0666 33.658C72.7266 33.298 73.4826 33.118 74.3346 33.118C74.8386 33.118 75.3186 33.178 75.7746 33.298C76.2426 33.406 76.6266 33.532 76.9266 33.676L76.3326 35.206C76.0326 35.086 75.7086 34.978 75.3606 34.882C75.0126 34.786 74.6826 34.738 74.3706 34.738C73.8186 34.738 73.3626 34.87 73.0026 35.134C72.6546 35.386 72.3906 35.77 72.2106 36.286C72.0306 36.79 71.9406 37.426 71.9406 38.194C71.9406 38.926 72.0306 39.544 72.2106 40.048C72.3906 40.552 72.6546 40.936 73.0026 41.2C73.3626 41.452 73.7946 41.578 74.2986 41.578C74.7906 41.578 75.2286 41.518 75.6126 41.398C76.0086 41.278 76.3746 41.122 76.7106 40.93V42.586C76.3746 42.79 76.0086 42.94 75.6126 43.036C75.2166 43.132 74.7426 43.18 74.1906 43.18Z" fill="#080851"/>
<path d="M80.2174 32.974C80.2174 33.274 80.2054 33.574 80.1814 33.874C80.1694 34.174 80.1514 34.42 80.1274 34.612H80.2354C80.4274 34.276 80.6614 34 80.9374 33.784C81.2254 33.568 81.5434 33.406 81.8914 33.298C82.2514 33.19 82.6174 33.136 82.9894 33.136C83.6974 33.136 84.2974 33.262 84.7894 33.514C85.2934 33.754 85.6714 34.138 85.9234 34.666C86.1874 35.182 86.3194 35.854 86.3194 36.682V43H84.3574V36.952C84.3574 36.196 84.2134 35.632 83.9254 35.26C83.6374 34.876 83.1874 34.684 82.5754 34.684C81.9874 34.684 81.5194 34.816 81.1714 35.08C80.8234 35.344 80.5774 35.734 80.4334 36.25C80.2894 36.754 80.2174 37.378 80.2174 38.122V43H78.2734V29.32H80.2174V32.974Z" fill="#080851"/>
<path d="M90.4181 33.298V43H88.456V33.298H90.4181ZM89.4641 29.608C89.7521 29.608 90.004 29.692 90.22 29.86C90.4361 30.028 90.5441 30.31 90.5441 30.706C90.5441 31.09 90.4361 31.372 90.22 31.552C90.004 31.72 89.7521 31.804 89.4641 31.804C89.1521 31.804 88.8881 31.72 88.6721 31.552C88.456 31.372 88.348 31.09 88.348 30.706C88.348 30.31 88.456 30.028 88.6721 29.86C88.8881 29.692 89.1521 29.608 89.4641 29.608Z" fill="#080851"/>
<path d="M96.0474 41.632C96.2994 41.632 96.5454 41.608 96.7854 41.56C97.0254 41.512 97.2354 41.458 97.4154 41.398V42.838C97.2114 42.934 96.9414 43.012 96.6054 43.072C96.2814 43.144 95.9394 43.18 95.5794 43.18C95.0754 43.18 94.6134 43.09 94.1934 42.91C93.7734 42.73 93.4374 42.418 93.1854 41.974C92.9334 41.53 92.8074 40.912 92.8074 40.12V34.756H91.5654V33.892L92.8974 33.172L93.5634 31.12H94.7694V33.298H97.3434V34.756H94.7694V40.084C94.7694 40.612 94.8894 41.002 95.1294 41.254C95.3694 41.506 95.6754 41.632 96.0474 41.632Z" fill="#080851"/>
<path d="M102.351 33.118C103.155 33.118 103.851 33.298 104.439 33.658C105.027 34.006 105.477 34.51 105.789 35.17C106.113 35.83 106.275 36.61 106.275 37.51V38.554H100.173C100.197 39.55 100.437 40.312 100.893 40.84C101.349 41.368 101.991 41.632 102.819 41.632C103.407 41.632 103.929 41.578 104.385 41.47C104.853 41.35 105.327 41.176 105.807 40.948V42.532C105.351 42.748 104.883 42.91 104.403 43.018C103.935 43.126 103.365 43.18 102.693 43.18C101.817 43.18 101.037 42.994 100.353 42.622C99.6688 42.25 99.1348 41.698 98.7508 40.966C98.3668 40.222 98.1748 39.31 98.1748 38.23C98.1748 37.138 98.3488 36.214 98.6968 35.458C99.0448 34.702 99.5308 34.126 100.155 33.73C100.791 33.322 101.523 33.118 102.351 33.118ZM102.351 34.594C101.739 34.594 101.247 34.816 100.875 35.26C100.503 35.704 100.287 36.334 100.227 37.15H104.349C104.349 36.646 104.277 36.202 104.133 35.818C103.989 35.434 103.767 35.134 103.467 34.918C103.179 34.702 102.807 34.594 102.351 34.594Z" fill="#080851"/>
<path d="M111.674 43.18C110.822 43.18 110.072 43.006 109.424 42.658C108.788 42.31 108.29 41.77 107.93 41.038C107.582 40.294 107.408 39.352 107.408 38.212C107.408 37.012 107.6 36.04 107.984 35.296C108.368 34.552 108.89 34.006 109.55 33.658C110.21 33.298 110.966 33.118 111.818 33.118C112.322 33.118 112.802 33.178 113.258 33.298C113.726 33.406 114.11 33.532 114.41 33.676L113.816 35.206C113.516 35.086 113.192 34.978 112.844 34.882C112.496 34.786 112.166 34.738 111.854 34.738C111.302 34.738 110.846 34.87 110.486 35.134C110.138 35.386 109.874 35.77 109.694 36.286C109.514 36.79 109.424 37.426 109.424 38.194C109.424 38.926 109.514 39.544 109.694 40.048C109.874 40.552 110.138 40.936 110.486 41.2C110.846 41.452 111.278 41.578 111.782 41.578C112.274 41.578 112.712 41.518 113.096 41.398C113.492 41.278 113.858 41.122 114.194 40.93V42.586C113.858 42.79 113.492 42.94 113.096 43.036C112.7 43.132 112.226 43.18 111.674 43.18Z" fill="#080851"/>
<path d="M119.195 41.632C119.447 41.632 119.693 41.608 119.933 41.56C120.173 41.512 120.383 41.458 120.563 41.398V42.838C120.359 42.934 120.089 43.012 119.753 43.072C119.429 43.144 119.087 43.18 118.727 43.18C118.223 43.18 117.761 43.09 117.341 42.91C116.921 42.73 116.585 42.418 116.333 41.974C116.081 41.53 115.955 40.912 115.955 40.12V34.756H114.713V33.892L116.045 33.172L116.711 31.12H117.917V33.298H120.491V34.756H117.917V40.084C117.917 40.612 118.037 41.002 118.277 41.254C118.517 41.506 118.823 41.632 119.195 41.632Z" fill="#080851"/>
<path d="M128 40.264C128 40.9 127.856 41.434 127.568 41.866C127.28 42.298 126.86 42.628 126.308 42.856C125.756 43.072 125.078 43.18 124.274 43.18C123.638 43.18 123.08 43.126 122.6 43.018C122.132 42.922 121.7 42.778 121.304 42.586V40.912C121.724 41.116 122.204 41.302 122.744 41.47C123.284 41.626 123.8 41.704 124.292 41.704C124.928 41.704 125.39 41.59 125.678 41.362C125.966 41.134 126.11 40.828 126.11 40.444C126.11 40.228 126.05 40.036 125.93 39.868C125.822 39.688 125.612 39.508 125.3 39.328C124.988 39.136 124.538 38.92 123.95 38.68C123.374 38.428 122.888 38.182 122.492 37.942C122.108 37.69 121.808 37.396 121.592 37.06C121.388 36.712 121.286 36.268 121.286 35.728C121.286 34.888 121.61 34.246 122.258 33.802C122.906 33.346 123.752 33.118 124.796 33.118C125.372 33.118 125.906 33.178 126.398 33.298C126.89 33.406 127.37 33.574 127.838 33.802L127.244 35.26C126.968 35.128 126.686 35.02 126.398 34.936C126.122 34.84 125.846 34.762 125.57 34.702C125.294 34.642 125.018 34.612 124.742 34.612C124.226 34.612 123.836 34.702 123.572 34.882C123.308 35.062 123.176 35.314 123.176 35.638C123.176 35.878 123.236 36.082 123.356 36.25C123.488 36.418 123.71 36.586 124.022 36.754C124.346 36.922 124.79 37.12 125.354 37.348C125.918 37.576 126.398 37.81 126.794 38.05C127.19 38.29 127.49 38.584 127.694 38.932C127.898 39.28 128 39.724 128 40.264Z" fill="#080851"/>
</svg>
