<svg width="26" height="26" viewBox="0 0 26 26" fill="none" xmlns="http://www.w3.org/2000/svg">
<path d="M2.4714 13.71C2.4714 13.71 13.086 9.31967 16.7673 7.77372C18.1786 7.15538 22.9643 5.17655 22.9643 5.17655C22.9643 5.17655 25.1732 4.31088 24.9891 6.4133C24.9277 7.27905 24.4369 10.309 23.9461 13.5864C23.2098 18.2242 22.4121 23.2948 22.4121 23.2948C22.4121 23.2948 22.2894 24.717 21.2464 24.9644C20.2033 25.2117 18.4853 24.0987 18.1786 23.8513C17.9331 23.6658 13.5768 20.8831 11.9816 19.5227C11.5521 19.1517 11.0613 18.4097 12.0429 17.544C14.2518 15.5033 16.8901 12.968 18.4853 11.3603C19.2216 10.6182 19.9579 8.8868 16.8901 10.9892C12.5338 14.0193 8.23888 16.8638 8.23888 16.8638C8.23888 16.8638 7.25715 17.4821 5.41649 16.9255C3.57575 16.3691 1.42828 15.627 1.42828 15.627C1.42828 15.627 -0.0441831 14.6995 2.4714 13.71Z" fill="#4342F7"/>
</svg>
